# xmcd
# 
# Track frame offsets:
#     150
#     14522
#     35204
#     49537
#     70218
#     84775
#     99341
#     113899
#     128458
#     143000
#     163721
#     184442
#     205161
#     225882
# 
# Disc length: 3284
# 
# Revision: 4
# Processed by: cddbd v1.5.2PL0 Copyright (c) Steve Scherf et al.
# Submitted via: fre:ac v1.0.17
# 
DISCID=b00cd20e
DTITLE=K-ON - ごはんはおかず／U&I
DYEAR=2010
DGENRE=Anime
TTITLE0=ごはんはおかず
TTITLE1=U&I
TTITLE2=Instrumental/ごはんはおかず (Instrumental)
TTITLE3=Instrumental/U&I (Instrumental)
TTITLE4=Instrumental 【-Guitar1】/ごはんはおかず (Instrumental 【-Guitar1】)
TTITLE5=Instrumental 【-Guitar2】/ごはんはおかず (Instrumental 【-Guitar2】)
TTITLE6=Instrumental 【-Keyboard】/ごはんはおかず (Instrumental 【-Keyboard】)
TTITLE7=(Instrumental 【-Bass】/ごはんはおかず (Instrumental 【-Bass】)
TTITLE8=Instrumental 【-Drums】/ごはんはおかず (Instrumental 【-Drums】)
TTITLE9=Instrumental 【-Guitar1】/U&I (Instrumental 【-Guitar1】)
TTITLE10=Instrumental 【-Guitar2】/U&I (Instrumental 【-Guitar2】)
TTITLE11=Instrumental 【-Keyboard】/U&I (Instrumental 【-Keyboard】)
TTITLE12=Instrumental 【-Bass】/U&I (Instrumental 【-Bass】)
TTITLE13=Instrumental 【-Drums】/U&I (Instrumental 【-Drums】)
EXTD=
EXTT0=
EXTT1=
EXTT2=
EXTT3=
EXTT4=
EXTT5=
EXTT6=
EXTT7=
EXTT8=
EXTT9=
EXTT10=
EXTT11=
EXTT12=
EXTT13=
PLAYORDER=
